<?xml version="1.0" encoding="UTF-8"?>
<svg xmlns="http://www.w3.org/2000/svg" xmlns:xlink="http://www.w3.org/1999/xlink" viewBox="0 0 50 50" width="50px" height="50px">
<g id="surface71657424">
<path style="fill-rule:nonzero;fill:rgb(0%,0%,0%);fill-opacity:1;stroke-width:10;stroke-linecap:butt;stroke-linejoin:round;stroke:rgb(38.039216%,85.490197%,98.431373%);stroke-opacity:1;stroke-miterlimit:10;" d="M 161.676589 86.000001 C 161.676589 124.307541 133.180557 155.889221 96.238096 160.908731 L 96.238096 106.063824 L 115.832673 106.063824 L 118.904101 86.170636 L 96.238096 86.170636 L 96.238096 75.292659 C 96.238096 67.031085 98.939816 59.693784 106.675265 59.693784 L 119.103175 59.693784 L 119.103175 42.33168 C 116.913361 42.033069 112.306218 41.393188 103.575398 41.393188 C 85.36012 41.393188 74.695437 51.005622 74.695437 72.93221 L 74.695437 86.170636 L 55.968254 86.170636 L 55.968254 106.063824 L 74.695437 106.063824 L 74.695437 160.738096 C 38.264881 155.277779 10.323413 123.937832 10.323413 86.000001 C 10.323413 44.208664 44.208664 10.323413 86.000001 10.323413 C 127.791337 10.323413 161.676589 44.208664 161.676589 86.000001 Z M 161.676589 86.000001 " transform="matrix(0.274709,0,0,0.274709,1.375,1.375)"/>
<path style=" stroke:none;fill-rule:nonzero;fill:rgb(0%,0%,0%);fill-opacity:1;" d="M 25 4.210938 C 13.519531 4.210938 4.210938 13.519531 4.210938 25 C 4.210938 35.421875 11.886719 44.03125 21.894531 45.53125 L 21.894531 30.511719 L 16.75 30.511719 L 16.75 25.046875 L 21.894531 25.046875 L 21.894531 21.410156 C 21.894531 15.386719 24.824219 12.746094 29.828125 12.746094 C 32.226562 12.746094 33.492188 12.921875 34.09375 13.003906 L 34.09375 17.773438 L 30.679688 17.773438 C 28.554688 17.773438 27.8125 19.789062 27.8125 22.058594 L 27.8125 25.046875 L 34.039062 25.046875 L 33.195312 30.511719 L 27.8125 30.511719 L 27.8125 45.578125 C 37.960938 44.199219 45.789062 35.523438 45.789062 25 C 45.789062 13.519531 36.480469 4.210938 25 4.210938 Z M 25 4.210938 "/>
</g>
</svg>
