<?xml version="1.0" encoding="UTF-8"?>
<svg xmlns="http://www.w3.org/2000/svg" xmlns:xlink="http://www.w3.org/1999/xlink" viewBox="0 0 50 50" width="50px" height="50px">
<g id="surface71686920">
<path style="fill-rule:nonzero;fill:rgb(0%,0%,0%);fill-opacity:1;stroke-width:10;stroke-linecap:butt;stroke-linejoin:round;stroke:rgb(38.039216%,85.490197%,98.431373%);stroke-opacity:1;stroke-miterlimit:10;" d="M 165.117726 86.000001 C 165.117726 129.625662 129.625662 165.117726 86.000001 165.117726 C 42.374339 165.117726 6.882275 129.625662 6.882275 86.000001 C 6.882275 42.374339 42.374339 6.882275 86.000001 6.882275 C 129.625662 6.882275 165.117726 42.374339 165.117726 86.000001 Z M 61.926257 68.794313 L 48.161707 68.794313 L 48.161707 120.397157 L 61.926257 120.397157 Z M 61.926257 51.602844 C 61.926257 47.791998 58.840609 44.720569 55.043982 44.720569 C 51.233135 44.720569 48.161707 47.791998 48.161707 51.602844 C 48.161707 55.399471 51.233135 58.485119 55.043982 58.485119 C 58.840609 58.485119 61.926257 55.399471 61.926257 51.602844 Z M 127.279432 91.161707 C 127.279432 78.804895 117.26885 68.794313 104.926257 68.794313 C 98.911376 68.794313 93.451059 71.183202 89.441138 75.050926 L 89.441138 68.794313 L 75.676588 68.794313 L 75.676588 120.397157 L 89.441138 120.397157 L 89.441138 94.602845 C 89.441138 87.976522 94.858797 82.558863 101.48512 82.558863 C 108.097223 82.558863 113.514882 87.976522 113.514882 94.602845 L 113.514882 120.397157 L 127.279432 120.397157 Z M 127.279432 91.161707 " transform="matrix(0.274709,0,0,0.274709,1.375,1.375)"/>
<path style=" stroke:none;fill-rule:nonzero;fill:rgb(0%,0%,0%);fill-opacity:1;" d="M 25 3.265625 C 13.015625 3.265625 3.265625 13.015625 3.265625 25 C 3.265625 36.984375 13.015625 46.734375 25 46.734375 C 36.984375 46.734375 46.734375 36.984375 46.734375 25 C 46.734375 13.015625 36.984375 3.265625 25 3.265625 Z M 18.386719 34.449219 L 14.605469 34.449219 L 14.605469 20.273438 L 18.386719 20.273438 Z M 16.496094 17.441406 C 15.449219 17.441406 14.605469 16.59375 14.605469 15.550781 C 14.605469 14.503906 15.449219 13.660156 16.496094 13.660156 C 17.539062 13.660156 18.386719 14.503906 18.386719 15.550781 C 18.386719 16.59375 17.539062 17.441406 16.496094 17.441406 Z M 36.339844 34.449219 L 32.558594 34.449219 L 32.558594 27.363281 C 32.558594 25.542969 31.070312 24.054688 29.253906 24.054688 C 27.433594 24.054688 25.945312 25.542969 25.945312 27.363281 L 25.945312 34.449219 L 22.164062 34.449219 L 22.164062 20.273438 L 25.945312 20.273438 L 25.945312 21.992188 C 27.046875 20.929688 28.546875 20.273438 30.199219 20.273438 C 33.589844 20.273438 36.339844 23.023438 36.339844 26.417969 Z M 36.339844 34.449219 "/>
</g>
</svg>
